# xmcd
#
# Track frame offsets:
#	150
#	19174
#	35963
#	51390
#	71713
#	90057
#	105516
#	133835
#	150013
#	169472
#	186680
#	200977
#
# Disc length: 2864 seconds
#
# Revision: 0
# Processed by: cddbd v1.5.1PL0 Copyright (c) Steve Scherf et al.
# Submitted via: dBpowerAMP V4.0
#
DISCID=ae0b2e0c
DTITLE=Morcheeba - Charengo
DYEAR=1900
DGENRE=
TTITLE0=Slowdown
TTITLE1=Otherwise
TTITLE2=Aqualung
TTITLE3=Sao Paulo
TTITLE4=Charengo (Feat. Pase Won)
TTITLE5=What New York Couples Fight About (Feat. Kurt Wagner)
TTITLE6=Undress Me Now
TTITLE7=Way Beyond
TTITLE8=Women Lose Weight (Feat. Slick Rick)
TTITLE9=Get Along (Feat. Pace Won)
TTITLE10=Public Displays Of Affection
TTITLE11=The Great London Traffic Warden Massacre
EXTD=
EXTT0=
EXTT1=
EXTT2=
EXTT3=
EXTT4=
EXTT5=
EXTT6=
EXTT7=
EXTT8=
EXTT9=
EXTT10=
EXTT11=
PLAYORDER=
